<?xml version="1.0" encoding="UTF-8"?>
<svg width="44px" height="44px" viewBox="0 0 40 40" version="1.1" xmlns="http://www.w3.org/2000/svg" xmlns:xlink="http://www.w3.org/1999/xlink">
    <title>Icon-Architecture/32/Arch_Amazon-EFS_32</title>
    <defs>
        <linearGradient x1="0%" y1="100%" x2="100%" y2="0%" id="linearGradient-1">
            <stop stop-color="#1B660F" offset="0%"></stop>
            <stop stop-color="#6CAE3E" offset="100%"></stop>
        </linearGradient>
    </defs>
    <g id="Icon-Architecture/32/Arch_Amazon-EFS_32" stroke="none" stroke-width="1" fill="none" fill-rule="evenodd">
        <g id="Rectangle" fill="url(#linearGradient-1)">
            <rect x="0" y="0" width="40" height="40"></rect>
        </g>
        <g id="Icon-Service/32/Amazon-EFS_32" transform="translate(4.000000, 4.000000)" fill="#FFFFFF">
            <path d="M29,25 L30,25 L30,29.5 C30,29.776 29.776,30 29.5,30 L25,30 L25,29 L28.293,29 L24.646,25.354 L25.354,24.646 L29,28.293 L29,25 Z M7.354,25.354 L3.707,29 L7,29 L7,30 L2.5,30 C2.224,30 2,29.776 2,29.5 L2,25 L3,25 L3,28.293 L6.646,24.646 L7.354,25.354 Z M30,2.5 L30,7 L29,7 L29,3.707 L25.354,7.354 L24.646,6.646 L28.293,3 L25,3 L25,2 L29.5,2 C29.776,2 30,2.224 30,2.5 L30,2.5 Z M3,7 L2,7 L2,2.5 C2,2.224 2.224,2 2.5,2 L7,2 L7,3 L3.707,3 L7.354,6.646 L6.646,7.354 L3,3.707 L3,7 Z M8.474,12.31 C8.474,12.539 8.492,12.768 8.518,12.988 C8.548,13.238 8.387,13.471 8.142,13.532 C7.077,13.796 5.292,14.62 5.292,17.162 L5.299,17.397 C5.381,18.902 6.373,20.178 7.825,20.68 L7.499,21.625 C5.66,20.99 4.405,19.365 4.302,17.486 C4.296,17.349 4.292,17.256 4.292,17.162 C4.292,14.989 5.477,13.341 7.485,12.681 C7.479,12.558 7.474,12.434 7.474,12.31 C7.474,9.871 9.124,7.34 11.312,6.423 C13.867,5.351 16.579,5.886 18.561,7.85 C19.158,8.443 19.651,9.159 20.031,9.983 C21.631,8.723 24.532,9.288 24.933,12.561 C27.418,13.2 28.781,14.833 28.781,17.191 C28.781,19.792 27.368,20.895 26.184,21.362 L25.816,20.431 C27.139,19.911 27.781,18.851 27.781,17.191 C27.781,15.188 26.632,13.931 24.364,13.455 C24.144,13.409 23.98,13.22 23.968,12.995 C23.86,11.168 22.82,10.351 21.836,10.351 C21.225,10.351 20.647,10.651 20.254,11.175 C20.145,11.321 19.967,11.396 19.779,11.369 C19.598,11.341 19.445,11.216 19.384,11.042 C19.034,10.064 18.506,9.205 17.856,8.559 C17.047,7.758 14.828,6.033 11.698,7.346 C9.89,8.103 8.474,10.284 8.474,12.31 L8.474,12.31 Z M22,25 L10,25 L10,17.5 C10,17.289 10.04,17.131 10.109,17.067 C10.188,16.992 10.366,16.993 10.5,17 L11.897,17 C12.168,17 12.39,16.772 12.397,16.502 C12.4,16.403 12.467,16.155 12.53,15.999 L14.387,15.991 C14.433,16.147 14.475,16.384 14.475,16.5 C14.475,16.776 14.698,17 14.975,17 L21.675,16.999 C21.793,16.99 21.832,17.023 21.845,17.035 C21.92,17.105 22,17.326 22,17.733 L22,25 Z M24.307,18.5 L23,22.419 L23,18.5 L24.307,18.5 Z M25.475,18.158 C25.525,18.006 25.5,17.838 25.405,17.708 C25.312,17.577 25.161,17.5 25,17.5 L22.984,17.5 C22.949,16.967 22.801,16.56 22.527,16.304 C22.36,16.149 22.072,15.969 21.641,16 L15.414,16 C15.329,15.599 15.128,15.089 14.646,15 L12.312,15 C11.816,15 11.585,15.564 11.479,16 L10.534,16.001 C10.079,15.969 9.698,16.081 9.427,16.336 C9.144,16.6 9,16.992 9,17.5 L9,25.5 C9,25.776 9.224,26 9.5,26 L22.5,26 C22.721,26 22.902,25.854 22.969,25.656 L22.975,25.658 L25.475,18.158 Z" id="Amazon-EFS_Icon_32_Squid"></path>
        </g>
    </g>
</svg>