<?xml version="1.0" encoding="UTF-8" standalone="no"?>
<!DOCTYPE svg PUBLIC "-//W3C//DTD SVG 1.1//EN" "http://www.w3.org/Graphics/SVG/1.1/DTD/svg11.dtd">
<svg width="100%" height="100%" viewBox="0 0 144 174" version="1.1" xmlns="http://www.w3.org/2000/svg" xmlns:xlink="http://www.w3.org/1999/xlink" xml:space="preserve" xmlns:serif="http://www.serif.com/" style="fill-rule:evenodd;clip-rule:evenodd;stroke-linejoin:round;stroke-miterlimit:2;">
    <g>
        <g>
            <g>
                <path id="Steak_00000051361873151716360100000016471584671604917652_" d="M46,0.1L45.9,0.2C45.6,0.4 45.6,0.7 45.7,0.9L75.8,57.8C75.9,58.1 75.6,58.5 76.5,58L77.6,57.5C77.9,57.4 78,57 77.8,56.7L46.8,0.3C46.7,0 46.3,-0.1 46,0.1Z" style="fill:rgb(213,222,248);fill-rule:nonzero;"/>
                <path id="Hand_00000176014384482412998530000007308495946416800394_" d="M82.4,67.9L78.8,62.4C78.7,62.1 77.6,59.3 77.4,58.6L77.1,58L77.1,57.9L76.9,57.5C76.5,56.8 77,55.8 77.9,55.9C78.9,55.9 80.1,56.1 80.7,56.9C82,58.4 84.8,61.5 84.8,61.5L89.5,67.3C89.5,67.3 89.5,67.4 89.6,67.4C89.7,68.1 91,74 91.4,75.6C91.9,77.3 94.1,83.1 93.8,86.6C93.7,87.7 93.6,88.4 93.6,89C93.5,89.9 94,90.7 94.7,91.2L96.2,92C96.4,92.1 96.4,92.3 96.3,92.4L85.8,104.4C85.7,104.5 85.5,104.5 85.4,104.4L78.4,95.4C78.1,95 77.6,94.6 77.2,94.3L69.9,89.8C69.6,89.5 64.9,85 63.3,84.1C61.7,83.1 57.4,80.9 56.1,79.5C54.8,78.1 53.1,73.6 53.4,72.7C53.7,71.9 54.8,71.9 55,71.9L55.1,71.9C55.3,72 56.5,72.6 57.8,74.6C59.3,76.9 63.2,78.4 63.4,78.3C63.6,78.2 63.6,77 62.9,76.1C62.4,75.4 60.8,72.9 60.2,71.9C60,71.6 59.9,71.3 59.8,70.9C59.5,69 58.7,62.5 58.8,61.9C58.9,61.2 60.1,58.9 61.1,58.8C62.1,58.7 63.6,59.6 63.1,61.8C62.7,63.6 63.4,67.4 63.7,68.7C63.8,69 63.8,69.2 64,69.4L65.8,71.6C66,71.8 66.3,71.7 66.3,71.4C65.9,69.4 65.1,64.9 65.4,62.1C65.8,58.4 68.1,52.8 68.4,52.3C68.6,52 69.5,51.3 70.4,51.3C71.2,51.4 71.8,51 72.2,52L72.4,52.3C72.4,52.4 72.3,52.7 72.3,52.7C71.9,53.3 69.6,56.1 69.7,59.6C69.8,66.6 70.1,65.9 70.6,67C70.9,67.5 71.8,68 72.3,68.7C72.5,68.9 72.9,68.7 72.8,68.4L71.8,66C71.5,65.3 71.3,64.2 71.3,63.5C71.1,58.2 73,53.7 73.3,54C73.5,54.2 75.2,57.4 75.5,58L75.5,58.4C75.4,58.9 74.8,61.1 75,63.2C75.2,65.5 78.4,68.5 78.6,68.7L79.5,69.8C79.7,70 81.4,71.1 82.2,70.4C82.8,69.7 82.5,68.2 82.4,67.9Z" style="fill:rgb(192,137,87);fill-rule:nonzero;"/>
                <g id="Arm_00000022540730189610574850000010268244174163109021_">
                    <path d="M83,100.6C82.9,100.8 77,106.5 77.1,107.9C77.3,109.2 81.9,113.7 81.9,113.7C81.9,113.7 92.4,104 93.4,102.8C95.9,99.7 99.2,95.9 99,94C98.8,91.8 96.6,89.4 96.6,89.4L94.9,87.6L83,100.6Z" style="fill:white;fill-rule:nonzero;"/>
                    <path id="Arm_00000034084462760435558290000003562964972170772394_" d="M97.7,91.1C97.7,91.1 97.1,94 95.7,97.1C93.8,101.1 83.4,110.2 83,110.6C82.7,110.9 76.8,116.9 76.1,116.1C75.5,115.4 79.7,111.5 79.5,111.3C79.4,111.2 78.7,110.5 78.7,110.4C78.2,109.7 73.5,115.6 74,116.8C74.5,118.3 75.4,118.1 76.4,119.6C77.5,121.1 82.1,127.6 86.4,132.7C90.7,137.9 104.6,149.8 104.6,149.8L127.9,172.2L129.5,173.6C129.4,173.1 129.4,173 129.2,171.2L128.9,167.4C128.9,167.4 126,129.6 125.7,125.9C125.2,119.2 106,99.3 105,98.3L104.9,98.2L99.8,91.1C99.6,90.8 98.7,89.9 98,89.5C97.8,89.4 97.5,89.3 97.6,89.3C97.6,89.4 97.7,90.7 97.7,91.1Z" style="fill:rgb(213,222,248);fill-rule:nonzero;"/>
                </g>
            </g>
        </g>
        <g>
            <rect x="0" y="119.5" width="144" height="40.2" style="fill:rgb(213,222,248);"/>
            <g>
                <path d="M40.6,145.9L49.7,145.9L49.7,147.2L39,147.2L39,128.7L40.6,128.7L40.6,145.9Z" style="fill:rgb(71,66,98);fill-rule:nonzero;"/>
                <path d="M62.7,147.5C61.5,147.5 60.5,147.2 59.5,146.6C58.5,146 57.8,145.2 57.3,144.2C56.8,143.2 56.5,142 56.5,140.7L56.5,140.2C56.5,138.9 56.8,137.7 57.3,136.6C57.8,135.5 58.5,134.7 59.4,134.1C60.3,133.5 61.3,133.2 62.4,133.2C64.1,133.2 65.4,133.8 66.4,134.9C67.4,136 67.9,137.6 67.9,139.6L67.9,140.5L58,140.5L58,140.8C58,142.4 58.4,143.7 59.3,144.7C60.2,145.7 61.3,146.3 62.7,146.3C63.5,146.3 64.2,146.2 64.9,145.9C65.6,145.6 66.1,145.1 66.6,144.5L67.6,145.2C66.4,146.7 64.8,147.5 62.7,147.5ZM62.4,134.5C61.3,134.5 60.3,134.9 59.5,135.8C58.7,136.7 58.2,137.8 58.1,139.2L66.3,139.2L66.3,139C66.3,137.7 65.9,136.6 65.2,135.8C64.5,135 63.6,134.5 62.4,134.5Z" style="fill:rgb(71,66,98);fill-rule:nonzero;"/>
                <path d="M78.2,130L78.2,133.5L81,133.5L81,134.7L78.2,134.7L78.2,143.9C78.2,144.7 78.3,145.2 78.6,145.6C78.9,146 79.3,146.2 80,146.2C80.3,146.2 80.7,146.2 81.2,146.1L81.3,147.3C80.9,147.4 80.4,147.5 79.7,147.5C78.7,147.5 77.9,147.2 77.4,146.6C76.9,146 76.7,145.1 76.7,143.9L76.7,134.7L74.2,134.7L74.2,133.5L76.7,133.5L76.7,130L78.2,130Z" style="fill:rgb(71,66,98);fill-rule:nonzero;"/>
                <path d="M88.1,140.1C88.1,138.8 88.4,137.6 88.9,136.5C89.4,135.4 90.1,134.6 91.1,134C92,133.4 93.1,133.1 94.3,133.1C96.1,133.1 97.6,133.7 98.7,135C99.8,136.3 100.4,138 100.4,140.1L100.4,140.4C100.4,141.7 100.1,142.9 99.6,144C99.1,145.1 98.4,145.9 97.4,146.5C96.5,147.1 95.4,147.4 94.2,147.4C92.4,147.4 90.9,146.8 89.8,145.5C88.7,144.2 88.1,142.5 88.1,140.4L88.1,140.1ZM89.6,140.6C89.6,142.2 90,143.6 90.9,144.6C91.8,145.7 92.9,146.2 94.2,146.2C95.6,146.2 96.7,145.7 97.5,144.6C98.4,143.5 98.8,142.2 98.8,140.4L98.8,140.1C98.8,139.1 98.6,138.1 98.2,137.2C97.8,136.3 97.3,135.7 96.6,135.2C95.9,134.7 95.1,134.5 94.2,134.5C92.8,134.5 91.7,135 90.9,136.1C90,137.2 89.6,138.6 89.6,140.3L89.6,140.6Z" style="fill:rgb(71,66,98);fill-rule:nonzero;"/>
            </g>
        </g>
        <g transform="matrix(1,0,0,1.41,0,-65.395)">
            <rect x="0" y="159.5" width="144" height="10" style="fill:rgb(213,222,248);"/>
        </g>
        <g transform="matrix(1,0,0,1,1.75,-7)">
            <text x="22.789px" y="174.184px" style="font-family:'CascadiaCode-Roman', 'Cascadia Code', monospace;font-size:18px;fill:rgb(71,66,98);">modelizer</text>
        </g>
    </g>
</svg>
