<svg xmlns="http://www.w3.org/2000/svg" width="76" height="80" fill="none" viewBox="0 0 76 80">
  <path fill="#fff" fill-rule="evenodd" d="M58.057 51.785 54.466 15.3a1.142 1.142 0 0 0-1.507-.967l-34.66 11.944c-.495.17-.807.657-.756 1.178l3.59 36.484a1.142 1.142 0 0 0 1.508.967L57.3 52.963c.495-.17.807-.657.756-1.178Zm-2.46-36.59a2.285 2.285 0 0 0-3.014-1.934l-34.66 11.945a2.256 2.256 0 0 0-1.511 2.356l3.59 36.484a2.285 2.285 0 0 0 3.015 1.934l34.66-11.945a2.256 2.256 0 0 0 1.511-2.356l-3.59-36.484Z" clip-rule="evenodd"/>
  <g clip-path="url(#a)">
    <path fill="#fff" d="M50.818 27.317a2.37 2.37 0 0 0-1.2.435l-2.98-1.806a2.388 2.388 0 0 0-2.549-2.404h-.018a2.388 2.388 0 0 0-2.056 3.204l-2.114 2.582a2.37 2.37 0 0 0-2.231.794c-.2.233-.349.496-.446.777l-10.627-1.747a2.728 2.728 0 0 0-2.706-1.68 2.727 2.727 0 0 0-2.53 2.904 2.727 2.727 0 0 0 1.909 2.412l.285 2.412a.48.48 0 0 0 .952-.112l-.259-2.182h.018a2.727 2.727 0 0 0 2.536-2.75l10.3 1.693v.008c.04.516.24.995.574 1.38l-4.35 3.868a2.197 2.197 0 0 0-2.638 2.302c.015.22.063.43.138.628l-3.85 2.783a2.369 2.369 0 0 0-1.643-.086l-.621-5.606a.479.479 0 1 0-.953.105l.666 6.002c0 .007.002.013.003.02a2.382 2.382 0 0 0 1.073 4.08l-.14 4.75a2.389 2.389 0 0 0-1.961 2.512 2.388 2.388 0 0 0 2.544 2.216 2.388 2.388 0 0 0 2.216-2.52l4.182-1.259a2.386 2.386 0 0 0 2.149 1.06 2.388 2.388 0 0 0 2.042-1.475l9.615-.38a2.727 2.727 0 0 0 2.573 1.404 2.726 2.726 0 0 0 2.53-2.905 2.728 2.728 0 0 0-1.917-2.415l-.508-3.01a.479.479 0 1 0-.944.159l.461 2.737a2.727 2.727 0 0 0-2.507 3.084l-9.125.36c-.001-.034-.002-.069-.005-.104a2.371 2.371 0 0 0-.534-1.344l9.336-12.707c.246.109.508.175.78.196l1.145 5.9a.48.48 0 0 0 .94-.183l-1.133-5.837a2.39 2.39 0 0 0 1.179-3.639l2.099-1.902a2.392 2.392 0 0 0 2.292-.783 2.37 2.37 0 0 0 .568-1.735 2.389 2.389 0 0 0-2.56-2.197ZM24.2 31.95a1.767 1.767 0 0 1-1.883-1.64 1.767 1.767 0 0 1 1.64-1.883 1.767 1.767 0 0 1 1.883 1.64 1.767 1.767 0 0 1-1.64 1.883Zm24.212 17.212a1.767 1.767 0 0 1 1.883 1.64 1.767 1.767 0 0 1-1.64 1.883 1.767 1.767 0 0 1-1.883-1.64 1.767 1.767 0 0 1 1.64-1.883Zm-4.268-24.664.01-.001a1.429 1.429 0 0 1 1.522 1.315c.06.785-.53 1.472-1.314 1.532h-.011a1.429 1.429 0 0 1-1.521-1.314 1.429 1.429 0 0 1 1.314-1.532Zm-1.587 3.098a2.38 2.38 0 0 0 1.86.704h.018a2.386 2.386 0 0 0 1.978-1.37l2.542 1.54a2.37 2.37 0 0 0-.335 1.367l-6.952.888a2.393 2.393 0 0 0-.84-1.016l1.73-2.113Zm-4.16 3.15c.248-.29.594-.465.974-.494h.011a1.429 1.429 0 0 1 1.181 2.352c-.248.29-.594.465-.974.494a1.416 1.416 0 0 1-1.038-.34 1.418 1.418 0 0 1-.494-.974c-.029-.38.092-.749.34-1.038Zm.027 3.107c.01-.008.018-.017.026-.026.368.177.777.257 1.194.228l.018-.002a2.373 2.373 0 0 0 1.172-.413l3.254 1.726c0 .043.003.086.006.13.02.258.081.508.179.741l-9.616 1.73a2.216 2.216 0 0 0-.393-.415l4.16-3.7Zm-4.147 15.474-.623-8.017a2.2 2.2 0 0 0 1.388-2.439l9.526-1.713-9.14 12.44a2.372 2.372 0 0 0-1.151-.27ZM32.794 38.02c.149-.01.293.007.428.046a.48.48 0 0 0 .126.044 1.24 1.24 0 0 1-.384 2.38 1.234 1.234 0 0 1-1.082-.503.484.484 0 0 0-.083-.128 1.24 1.24 0 0 1 .994-1.84Zm-.09 3.425.629 8.1c-.282.128-.533.31-.741.532l-4.43-3.983a2.374 2.374 0 0 0-.362-2.69l3.554-2.57c.358.346.831.57 1.35.61Zm-8.09 3.663a1.429 1.429 0 0 1 1.326-1.522 1.43 1.43 0 0 1 1.522 1.326 1.429 1.429 0 0 1-1.326 1.522 1.429 1.429 0 0 1-1.522-1.326Zm1.264 10.747a1.429 1.429 0 0 1-1.522-1.326 1.429 1.429 0 0 1 1.325-1.522 1.429 1.429 0 0 1 1.522 1.326 1.43 1.43 0 0 1-1.325 1.522Zm2.035-2.49a2.397 2.397 0 0 0-1.594-1.257l.14-4.75a2.372 2.372 0 0 0 1.103-.515l4.52 4.064a2.374 2.374 0 0 0-.101 1.234l-4.068 1.224Zm6.512-.23a1.429 1.429 0 0 1-1.522-1.325 1.429 1.429 0 0 1 1.325-1.522 1.429 1.429 0 0 1 1.505 1.667.476.476 0 0 0-.042.175 1.43 1.43 0 0 1-1.266 1.006Zm12.156-16.399a1.42 1.42 0 0 1-1.038-.34 1.418 1.418 0 0 1-.494-.974c-.029-.38.092-.749.34-1.038.248-.29.594-.465.974-.494h.011a1.41 1.41 0 0 1 1.027.34 1.429 1.429 0 0 1-.82 2.506Zm1.134-3.458a2.382 2.382 0 0 0-3.439 1.103l-2.76-1.464c.23-.376.351-.806.349-1.25l7.005-.896a2.382 2.382 0 0 0 .696.83l-1.85 1.677Zm4.368-2.654a1.423 1.423 0 0 1-2.013.154 1.424 1.424 0 0 1-.14-2.027.474.474 0 0 0 .144-.141 1.42 1.42 0 0 1 .817-.338l.01-.001a1.429 1.429 0 0 1 1.182 2.353Z"/>
  </g>
  <defs>
    <clipPath id="a">
      <path fill="#fff" d="M0 0h32v32H0z" transform="rotate(-3.949 375.032 -291.996)"/>
    </clipPath>
  </defs>
</svg>
