<?xml version="1.0" standalone="no"?>
<!DOCTYPE svg PUBLIC "-//W3C//DTD SVG 20010904//EN"
 "http://www.w3.org/TR/2001/REC-SVG-20010904/DTD/svg10.dtd">
<svg version="1.0" xmlns="http://www.w3.org/2000/svg"
 width="640.000000pt" height="640.000000pt" viewBox="0 0 640.000000 640.000000"
 preserveAspectRatio="xMidYMid meet">
<metadata>
Created by potrace 1.14, written by Peter Selinger 2001-2017
</metadata>
<g transform="translate(0.000000,640.000000) scale(0.100000,-0.100000)"
fill="#000000" stroke="none">
<path d="M4330 5328 c-30 -11 -183 -64 -340 -118 -157 -54 -391 -135 -520
-180 -129 -44 -242 -83 -250 -85 -8 -2 -32 -11 -52 -19 -21 -9 -39 -16 -40
-15 -2 0 -10 -2 -18 -5 -8 -3 -134 -46 -280 -96 -146 -50 -368 -127 -495 -171
-126 -44 -234 -81 -240 -83 -8 -1 -121 -40 -185 -64 -8 -3 -19 -6 -25 -8 -5
-1 -82 -27 -169 -58 -168 -59 -198 -77 -227 -140 -21 -48 -19 -103 16 -421 3
-22 7 -67 10 -100 7 -81 15 -163 20 -205 5 -46 17 -157 20 -195 8 -98 17 -193
20 -215 2 -14 7 -59 10 -100 3 -41 8 -93 11 -115 2 -22 7 -65 9 -95 3 -30 7
-75 10 -100 3 -25 7 -70 10 -100 3 -30 8 -77 11 -105 2 -27 7 -72 9 -100 3
-27 8 -72 11 -100 2 -27 7 -72 10 -100 2 -27 7 -72 10 -100 2 -27 7 -70 10
-95 2 -25 7 -71 9 -102 5 -62 13 -139 20 -203 2 -22 7 -69 10 -105 3 -36 7
-81 9 -100 7 -54 14 -128 21 -204 10 -119 52 -181 138 -205 62 -18 45 -22 402
101 143 50 337 116 430 148 94 32 276 95 405 140 129 45 267 92 305 105 39 13
176 60 305 105 129 45 289 100 355 122 66 22 129 43 140 48 19 9 340 119 360
124 6 2 21 8 35 13 14 6 59 21 100 34 54 17 85 34 112 61 37 37 61 96 54 134
-2 12 -7 56 -11 100 -3 43 -8 97 -10 119 -2 22 -7 69 -10 105 -4 36 -8 81 -10
100 -4 36 -14 142 -20 215 -2 22 -7 65 -10 95 -12 103 -14 125 -20 190 -3 36
-7 79 -9 95 -3 17 -7 66 -11 110 -4 44 -9 94 -10 110 -2 17 -6 64 -10 105 -3
41 -8 86 -10 100 -2 14 -7 59 -10 100 -4 41 -8 89 -10 105 -2 17 -7 59 -10 95
-5 65 -12 133 -20 200 -7 57 -17 160 -20 204 -2 22 -6 66 -9 96 -3 30 -8 80
-11 110 -3 30 -8 78 -11 105 -3 28 -7 68 -9 90 -5 72 -15 179 -20 215 -2 19
-7 67 -10 105 -3 39 -11 84 -17 100 -40 106 -146 147 -268 103z m137 -81 c31
-11 51 -61 59 -152 8 -101 10 -116 18 -195 4 -36 9 -89 11 -117 3 -29 7 -77
10 -105 7 -61 11 -107 20 -198 3 -36 8 -81 10 -100 3 -19 7 -64 10 -100 3 -36
7 -81 10 -100 7 -58 17 -161 21 -214 1 -28 4 -51 4 -51 1 0 3 -18 5 -40 8 -92
16 -172 20 -195 2 -14 7 -59 10 -100 3 -41 7 -88 9 -105 2 -16 6 -66 10 -110
4 -44 9 -91 11 -105 2 -14 7 -56 11 -95 3 -38 7 -83 9 -100 2 -16 6 -61 9
-100 4 -38 9 -88 11 -110 8 -78 15 -151 20 -210 2 -33 7 -80 10 -105 9 -72 14
-120 20 -195 3 -38 7 -79 9 -90 4 -21 -3 -37 -26 -67 -7 -10 -113 -52 -248
-99 -129 -44 -293 -101 -365 -125 -71 -25 -146 -50 -165 -56 -19 -6 -39 -13
-45 -16 -5 -4 -12 -7 -15 -7 -8 -1 -203 -66 -225 -75 -11 -4 -36 -13 -55 -20
-19 -7 -44 -16 -55 -20 -11 -5 -74 -26 -140 -48 -66 -23 -246 -84 -400 -137
-154 -54 -305 -106 -335 -116 -30 -10 -147 -50 -260 -89 -472 -164 -525 -181
-558 -169 -43 15 -60 47 -66 121 -7 82 -15 172 -21 228 -10 85 -16 145 -19
190 -6 70 -17 182 -21 210 -2 14 -7 59 -10 100 -9 99 -13 146 -20 200 -6 58
-12 118 -21 205 -3 39 -8 81 -9 95 -2 14 -6 61 -10 105 -8 89 -10 102 -19 195
-4 36 -8 85 -11 110 -4 50 -13 141 -20 210 -3 25 -7 70 -10 100 -6 64 -12 124
-19 195 -3 28 -8 75 -11 105 -3 30 -7 75 -10 100 -5 42 -10 98 -21 215 -2 28
-6 66 -8 85 -2 19 -7 73 -11 120 -4 47 -9 93 -11 104 -5 30 25 76 59 91 33 13
308 108 497 172 58 19 114 38 125 43 11 4 34 13 50 18 17 6 39 13 50 18 11 4
25 8 30 10 16 4 390 134 390 135 0 0 7 2 15 4 8 2 47 15 85 29 39 14 187 65
330 114 143 50 341 118 439 152 98 34 184 63 190 65 6 1 18 5 26 8 8 4 125 45
260 91 135 46 256 88 269 93 27 11 55 10 88 0z"/>
<path d="M3642 4508 c-19 -5 -53 -29 -77 -52 -46 -47 -63 -99 -53 -168 5 -28
-5 -44 -76 -132 -72 -89 -85 -101 -111 -100 -67 3 -150 -44 -174 -99 -14 -29
-19 -30 -111 -12 -13 3 -40 7 -60 10 -19 3 -60 10 -90 15 -30 5 -71 12 -90 15
-44 5 -456 73 -490 80 -16 4 -33 19 -44 40 -21 39 -76 79 -126 91 -213 50
-360 -206 -208 -363 17 -17 44 -37 59 -44 16 -6 30 -17 30 -23 1 -6 3 -20 4
-31 2 -11 6 -47 10 -80 3 -33 9 -67 11 -77 6 -22 31 -30 56 -17 18 10 19 17
13 77 -3 37 -8 82 -12 100 -4 28 -2 32 16 32 11 0 22 -1 24 -2 5 -4 92 56 110
76 25 29 48 83 49 116 l1 27 56 -9 c31 -5 67 -11 81 -13 14 -3 54 -10 90 -15
36 -5 76 -12 90 -14 86 -15 229 -39 253 -42 15 -2 39 -6 55 -9 15 -3 56 -10
92 -15 98 -15 110 -19 110 -36 0 -8 9 -33 20 -55 l21 -39 -27 -25 c-15 -14
-52 -47 -82 -73 -30 -26 -64 -56 -76 -67 -147 -133 -155 -139 -200 -141 -100
-5 -168 -78 -169 -183 0 -31 -5 -61 -11 -66 -6 -6 -69 -53 -141 -105 l-130
-94 -72 -1 c-40 0 -73 2 -74 5 0 3 -2 14 -4 25 -3 11 -7 47 -10 80 -4 33 -8
72 -11 88 -2 15 -6 51 -8 80 -5 64 -15 145 -22 175 -3 17 -11 22 -34 22 -34 0
-43 -18 -35 -81 2 -24 7 -66 10 -94 3 -27 8 -70 11 -95 7 -60 10 -91 19 -176
7 -66 5 -74 -18 -110 -33 -50 -42 -100 -27 -153 12 -44 73 -121 95 -121 8 0
20 -7 29 -15 12 -13 14 -39 11 -143 -2 -70 -4 -152 -4 -183 -1 -53 -3 -57 -28
-64 -67 -16 -122 -85 -129 -160 -5 -62 13 -111 56 -154 63 -62 155 -74 230
-28 52 32 85 82 92 142 4 27 10 32 64 48 32 11 66 21 74 24 8 4 20 7 25 8 6 2
41 12 79 24 84 26 94 26 116 1 9 -11 38 -29 63 -40 79 -35 177 -9 224 59 23
33 34 40 63 42 19 0 69 2 110 4 614 26 630 26 630 16 0 -16 48 -60 89 -80 27
-14 55 -19 102 -18 78 2 133 33 176 99 24 35 28 52 28 112 0 62 -4 77 -30 118
-19 30 -46 56 -73 70 -48 26 -45 19 -68 161 -17 105 -30 137 -58 137 -32 0
-40 -28 -28 -94 7 -35 15 -88 18 -117 l6 -54 -47 -14 c-81 -24 -143 -105 -150
-196 -2 -16 -3 -32 -4 -35 0 -3 -25 -6 -53 -6 -29 -1 -127 -4 -218 -7 -499
-20 -447 -21 -455 5 -3 13 -13 40 -22 60 l-15 37 168 228 c92 125 259 353 371
505 l203 277 33 -10 c17 -5 33 -9 34 -9 2 0 3 -10 3 -22 0 -13 7 -57 16 -98
16 -75 19 -91 28 -142 9 -51 37 -193 42 -209 7 -23 41 -30 60 -12 17 17 17 17
-21 208 -14 72 -27 144 -30 160 -3 17 -9 50 -14 75 -9 40 -8 47 11 60 101 71
128 162 83 271 -4 12 8 30 42 62 104 97 109 101 165 104 64 3 122 40 156 98
47 82 10 209 -76 257 -49 27 -153 26 -186 -1 -8 -7 -20 -6 -37 3 -20 11 -211
125 -216 130 0 0 -4 19 -7 41 -7 45 -48 101 -93 128 -37 21 -106 28 -151 15z
m130 -95 c30 -27 42 -54 39 -92 -6 -106 -147 -145 -204 -58 -36 55 -11 143 47
168 31 13 94 4 118 -18z m205 -230 c79 -49 93 -61 88 -78 -3 -11 -9 -37 -12
-57 -4 -30 -10 -38 -27 -39 -11 0 -32 -2 -46 -4 -14 -2 -47 -6 -75 -9 -27 -3
-84 -10 -125 -16 -41 -5 -91 -12 -110 -14 -19 -3 -52 -7 -72 -10 -94 -15 -108
-15 -108 -6 0 5 -14 25 -31 44 -26 30 -29 38 -17 49 18 19 90 106 106 128 11
17 15 16 58 -8 82 -46 186 -28 242 44 15 18 29 33 31 33 2 0 46 -26 98 -57z
m332 -71 c32 -23 50 -71 43 -110 -6 -31 -53 -79 -85 -88 -39 -9 -76 3 -107 36
-33 36 -40 67 -26 111 23 69 114 96 175 51z m-2146 -10 c61 -36 79 -125 39
-194 -17 -29 -77 -64 -107 -62 -11 0 -30 2 -42 3 -29 1 -83 48 -98 84 -7 18
-9 45 -5 75 6 37 15 53 45 79 53 46 106 51 168 15z m1207 -137 c105 -54 57
-225 -60 -210 -91 12 -133 103 -81 175 35 49 89 62 141 35z m725 -64 l28 -33
-29 -25 c-16 -13 -48 -42 -71 -64 -41 -38 -42 -38 -80 -26 -79 27 -154 6 -211
-58 l-39 -44 -30 19 c-17 10 -63 35 -102 55 -63 33 -72 41 -66 59 3 11 8 35
12 52 5 31 7 32 72 39 36 4 74 9 83 10 9 2 48 7 85 10 37 4 70 9 73 10 3 2 37
7 75 10 39 4 88 10 110 14 56 10 59 9 90 -28z m-423 -324 c15 -10 31 -76 18
-78 -18 -3 -78 -13 -245 -44 -71 -13 -150 -27 -175 -31 -25 -4 -47 -8 -50 -9
-3 -1 -25 -5 -50 -9 -25 -5 -54 -10 -65 -12 -10 -2 -37 -6 -60 -9 -22 -4 -54
-10 -71 -14 -33 -9 -64 2 -64 22 0 7 17 27 38 44 20 17 53 46 73 65 202 184
212 192 247 180 35 -12 95 -6 130 12 26 14 32 12 142 -46 63 -34 122 -66 132
-71z m253 99 c81 -34 86 -153 8 -197 -103 -60 -216 65 -145 160 36 49 79 61
137 37z m-217 -273 c-8 -10 -47 -63 -88 -118 -40 -55 -100 -136 -132 -180 -79
-107 -275 -374 -296 -403 -9 -13 -31 -42 -48 -65 -18 -23 -58 -79 -91 -124
-45 -62 -63 -79 -74 -72 -8 5 -26 9 -41 9 -15 0 -29 4 -32 9 -3 4 -8 46 -11
92 -3 46 -8 109 -10 139 -3 30 -7 87 -10 125 -5 76 -15 201 -20 251 -2 26 3
34 30 48 41 23 84 99 79 144 -2 22 2 32 12 33 8 1 17 2 22 3 4 1 27 6 52 10
25 5 54 10 65 12 11 3 58 11 105 20 47 8 96 17 110 20 14 2 39 7 55 10 17 2
86 15 155 28 69 13 138 24 154 25 27 1 28 0 14 -16z m-846 -84 c21 -25 26 -39
23 -71 -5 -49 -7 -52 -51 -73 -70 -33 -145 17 -139 94 7 86 110 117 167 50z
m-172 -204 c7 -8 27 -17 46 -21 39 -7 41 -13 49 -124 6 -83 10 -140 19 -250 3
-30 7 -96 11 -146 3 -50 7 -101 10 -112 3 -15 -5 -28 -25 -42 -35 -25 -34 -25
-63 3 -14 12 -52 47 -86 77 -34 30 -81 72 -104 94 -23 21 -61 54 -85 74 -41
33 -43 38 -36 71 13 62 7 109 -20 160 -15 28 -16 35 -5 42 8 4 70 48 139 98
69 50 128 91 131 91 4 0 12 -7 19 -15z m-371 -234 c17 -16 31 -35 32 -43 0 -7
2 -24 3 -37 9 -83 -97 -144 -167 -97 -43 29 -59 62 -53 111 11 89 119 128 185
66z m121 -297 c86 -76 235 -211 261 -236 14 -13 18 -30 15 -69 l-2 -52 -147
-43 c-81 -24 -151 -46 -157 -49 -5 -3 -24 11 -42 31 -18 20 -48 44 -67 53
l-34 18 3 99 c1 54 3 136 4 181 1 45 5 85 8 89 7 6 69 41 78 43 3 0 39 -29 80
-65z m1647 -123 c7 0 28 -14 46 -31 44 -38 59 -93 42 -144 -17 -49 -33 -66
-79 -87 -94 -42 -199 33 -191 137 4 52 23 81 70 110 32 19 49 21 112 15z
m-1120 -103 c25 -12 53 -65 53 -100 0 -12 -9 -37 -20 -55 -21 -36 -82 -60
-124 -49 -31 8 -76 50 -77 74 -5 69 -4 77 23 108 38 44 86 51 145 22z m-667
-233 c68 -65 26 -185 -67 -190 -94 -6 -151 82 -108 165 32 62 122 75 175 25z"/>
</g>
</svg>
