<svg viewBox="0 0 11.323649 14.013887" version="1.1" id="svg5" xml:space="preserve" xmlns="http://www.w3.org/2000/svg" xmlns:svg="http://www.w3.org/2000/svg" fill="#000"  fill-rule="evenodd">
  <defs id="defs2">
    <clipPath id="a">
      <path d="M 0,0 H 32 V 32 H 0 Z" transform="rotate(-3.949,375.032,-291.996)" id="path1195" />
    </clipPath>
  </defs>
  <g id="layer1" transform="translate(-198.41636,-154.04934)">
    <g id="g1209" transform="matrix(0.26458333,0,0,0.26458333,194.07693,150.57332)">
      <path d="M 58.057,51.785 54.466,15.3 a 1.142,1.142 0 0 0 -1.507,-0.967 l -34.66,11.944 c -0.495,0.17 -0.807,0.657 -0.756,1.178 l 3.59,36.484 a 1.142,1.142 0 0 0 1.508,0.967 L 57.3,52.963 c 0.495,-0.17 0.807,-0.657 0.756,-1.178 z m -2.46,-36.59 a 2.285,2.285 0 0 0 -3.014,-1.934 l -34.66,11.945 a 2.256,2.256 0 0 0 -1.511,2.356 l 3.59,36.484 a 2.285,2.285 0 0 0 3.015,1.934 l 34.66,-11.945 a 2.256,2.256 0 0 0 1.511,-2.356 l -3.59,-36.484 z" clip-rule="evenodd" id="path1189"/>
      <g clip-path="url(#a)" id="g1193">
        <path d="m 50.818,27.317 a 2.37,2.37 0 0 0 -1.2,0.435 l -2.98,-1.806 a 2.388,2.388 0 0 0 -2.549,-2.404 h -0.018 a 2.388,2.388 0 0 0 -2.056,3.204 l -2.114,2.582 a 2.37,2.37 0 0 0 -2.231,0.794 c -0.2,0.233 -0.349,0.496 -0.446,0.777 L 26.597,29.152 a 2.728,2.728 0 0 0 -2.706,-1.68 2.727,2.727 0 0 0 -2.53,2.904 2.727,2.727 0 0 0 1.909,2.412 l 0.285,2.412 a 0.48,0.48 0 0 0 0.952,-0.112 l -0.259,-2.182 h 0.018 a 2.727,2.727 0 0 0 2.536,-2.75 l 10.3,1.693 v 0.008 c 0.04,0.516 0.24,0.995 0.574,1.38 l -4.35,3.868 a 2.197,2.197 0 0 0 -2.638,2.302 c 0.015,0.22 0.063,0.43 0.138,0.628 l -3.85,2.783 a 2.369,2.369 0 0 0 -1.643,-0.086 l -0.621,-5.606 a 0.47938346,0.47938346 0 1 0 -0.953,0.105 l 0.666,6.002 c 0,0.007 0.002,0.013 0.003,0.02 a 2.382,2.382 0 0 0 1.073,4.08 l -0.14,4.75 a 2.389,2.389 0 0 0 -1.961,2.512 2.388,2.388 0 0 0 2.544,2.216 2.388,2.388 0 0 0 2.216,-2.52 l 4.182,-1.259 a 2.386,2.386 0 0 0 2.149,1.06 2.388,2.388 0 0 0 2.042,-1.475 l 9.615,-0.38 a 2.727,2.727 0 0 0 2.573,1.404 2.726,2.726 0 0 0 2.53,-2.905 2.728,2.728 0 0 0 -1.917,-2.415 l -0.508,-3.01 a 0.479,0.479 0 1 0 -0.944,0.159 l 0.461,2.737 a 2.727,2.727 0 0 0 -2.507,3.084 l -9.125,0.36 C 36.71,51.617 36.709,51.582 36.706,51.547 a 2.371,2.371 0 0 0 -0.534,-1.344 l 9.336,-12.707 c 0.246,0.109 0.508,0.175 0.78,0.196 l 1.145,5.9 a 0.48,0.48 0 0 0 0.94,-0.183 L 47.24,37.572 a 2.39,2.39 0 0 0 1.179,-3.639 l 2.099,-1.902 a 2.392,2.392 0 0 0 2.292,-0.783 2.37,2.37 0 0 0 0.568,-1.735 2.389,2.389 0 0 0 -2.56,-2.197 z M 24.2,31.95 a 1.767,1.767 0 0 1 -1.883,-1.64 1.767,1.767 0 0 1 1.64,-1.883 1.767,1.767 0 0 1 1.883,1.64 1.767,1.767 0 0 1 -1.64,1.883 z m 24.212,17.212 a 1.767,1.767 0 0 1 1.883,1.64 1.767,1.767 0 0 1 -1.64,1.883 1.767,1.767 0 0 1 -1.883,-1.64 1.767,1.767 0 0 1 1.64,-1.883 z m -4.268,-24.664 0.01,-0.001 a 1.429,1.429 0 0 1 1.522,1.315 c 0.06,0.785 -0.53,1.472 -1.314,1.532 H 44.351 A 1.429,1.429 0 0 1 42.83,26.03 1.429,1.429 0 0 1 44.144,24.498 Z m -1.587,3.098 a 2.38,2.38 0 0 0 1.86,0.704 h 0.018 a 2.386,2.386 0 0 0 1.978,-1.37 l 2.542,1.54 a 2.37,2.37 0 0 0 -0.335,1.367 l -6.952,0.888 a 2.393,2.393 0 0 0 -0.84,-1.016 l 1.73,-2.113 z m -4.16,3.15 c 0.248,-0.29 0.594,-0.465 0.974,-0.494 h 0.011 a 1.429,1.429 0 0 1 1.181,2.352 c -0.248,0.29 -0.594,0.465 -0.974,0.494 a 1.416,1.416 0 0 1 -1.038,-0.34 1.418,1.418 0 0 1 -0.494,-0.974 c -0.029,-0.38 0.092,-0.749 0.34,-1.038 z m 0.027,3.107 c 0.01,-0.008 0.018,-0.017 0.026,-0.026 0.368,0.177 0.777,0.257 1.194,0.228 l 0.018,-0.002 a 2.373,2.373 0 0 0 1.172,-0.413 l 3.254,1.726 c 0,0.043 0.003,0.086 0.006,0.13 0.02,0.258 0.081,0.508 0.179,0.741 l -9.616,1.73 a 2.216,2.216 0 0 0 -0.393,-0.415 l 4.16,-3.7 z M 34.277,49.327 33.654,41.31 a 2.2,2.2 0 0 0 1.388,-2.439 l 9.526,-1.713 -9.14,12.44 a 2.372,2.372 0 0 0 -1.151,-0.27 z M 32.794,38.02 c 0.149,-0.01 0.293,0.007 0.428,0.046 a 0.48,0.48 0 0 0 0.126,0.044 1.24,1.24 0 0 1 -0.384,2.38 1.234,1.234 0 0 1 -1.082,-0.503 0.484,0.484 0 0 0 -0.083,-0.128 1.24,1.24 0 0 1 0.994,-1.84 z m -0.09,3.425 0.629,8.1 c -0.282,0.128 -0.533,0.31 -0.741,0.532 l -4.43,-3.983 A 2.374,2.374 0 0 0 27.8,43.404 l 3.554,-2.57 c 0.358,0.346 0.831,0.57 1.35,0.61 z m -8.09,3.663 a 1.429,1.429 0 0 1 1.326,-1.522 1.43,1.43 0 0 1 1.522,1.326 1.429,1.429 0 0 1 -1.326,1.522 1.429,1.429 0 0 1 -1.522,-1.326 z m 1.264,10.747 a 1.429,1.429 0 0 1 -1.522,-1.326 1.429,1.429 0 0 1 1.325,-1.522 1.429,1.429 0 0 1 1.522,1.326 1.43,1.43 0 0 1 -1.325,1.522 z m 2.035,-2.49 a 2.397,2.397 0 0 0 -1.594,-1.257 l 0.14,-4.75 a 2.372,2.372 0 0 0 1.103,-0.515 l 4.52,4.064 a 2.374,2.374 0 0 0 -0.101,1.234 z m 6.512,-0.23 a 1.429,1.429 0 0 1 -1.522,-1.325 1.429,1.429 0 0 1 1.325,-1.522 1.429,1.429 0 0 1 1.505,1.667 0.476,0.476 0 0 0 -0.042,0.175 1.43,1.43 0 0 1 -1.266,1.006 z M 46.581,36.736 a 1.42,1.42 0 0 1 -1.038,-0.34 1.418,1.418 0 0 1 -0.494,-0.974 c -0.029,-0.38 0.092,-0.749 0.34,-1.038 0.248,-0.29 0.594,-0.465 0.974,-0.494 h 0.011 a 1.41,1.41 0 0 1 1.027,0.34 1.429,1.429 0 0 1 -0.82,2.506 z m 1.134,-3.458 a 2.382,2.382 0 0 0 -3.439,1.103 l -2.76,-1.464 c 0.23,-0.376 0.351,-0.806 0.349,-1.25 l 7.005,-0.896 a 2.382,2.382 0 0 0 0.696,0.83 l -1.85,1.677 z m 4.368,-2.654 a 1.423,1.423 0 0 1 -2.013,0.154 1.424,1.424 0 0 1 -0.14,-2.027 0.474,0.474 0 0 0 0.144,-0.141 1.42,1.42 0 0 1 0.817,-0.338 l 0.01,-10e-4 a 1.429,1.429 0 0 1 1.182,2.353 z" id="path1191"/>
      </g>
    </g>
  </g>
</svg>
