<svg version="1.1" xmlns="http://www.w3.org/2000/svg"
     class="template"
     width="96" height="80"
     overflow="visible">
    <rect class="component-background component-hitbox"
          stroke="#474262"
          stroke-dasharray="8 5"
          stroke-dashoffset="-5"
          stroke-width="3"
          fill="#FFFFFF"
          width="100%" height="100%"
          ry="4" rx="4" />

    {% if hasError %}
    <g class="component-error">
        <svg xmlns="http://www.w3.org/2000/svg"
             width="15" height="15"
             x="5" y="5"
             fill="#BB0A21"
             viewBox="0 0 512 512">
            <path d="M256 512c141.4 0 256-114.6 256-256S397.4 0 256 0S0 114.6 0 256S114.6 512 256 512zm0-384c13.3 0 24 10.7 24 24V264c0 13.3-10.7 24-24 24s-24-10.7-24-24V152c0-13.3 10.7-24 24-24zm32 224c0 17.7-14.3 32-32 32s-32-14.3-32-32s14.3-32 32-32s32 14.3 32 32z"/>
        </svg>
    </g>
    {% endif %}

    <g class="component-informations"
    {% if hasError %} fill="#BB0A21" {% else %} fill="#474262" {% endif %}
       stroke="none"
       font-family="Source Sans Pro">
        <text class="component-name"
              font-size="15"
              font-weight="bold"
              text-anchor="start"
    {% if hasError %} x="22.5" {% else %} x="5" {% endif %}
              y="17.5">Workflow: {{ getAttribute('name').value}}</text>
    </g>

    <svg class="component-container"
         overflow="visible"
         y="20">
        <rect class="container-background"
              width="100%" height="100%"
              rx="0"
              fill="white"/>
    </svg>
</svg>
